<svg id="Layer_1" data-name="Layer 1" xmlns="http://www.w3.org/2000/svg" width="256" height="256" viewBox="0 0 256 256"><path d="M77.5,219c3.2-1.3,5.4-3.6,8.4-4.9a10.8,10.8,0,0,1,9.3.4c2.6,1.1,4.7,2.9,6.9,4.5s1.5,1.9.4,3.3c-3.3,4.1-6.9,5.2-11.8,3.1S82.1,220.8,77.5,219Z" fill="#02415e"/><path d="M27.5,155.2a64.5,64.5,0,0,0,6.7,1.6c4.7,1,7.9,3.6,9.3,8.1a45.4,45.4,0,0,1,1.6,7.5c.2,1.9-.6,2.8-2.7,2.9-4.6.3-7.9-1.5-9.7-5.5S30,159.9,27.5,155.2Z" fill="#02415e"/><path d="M156.7,24.9c-2.8,2.4-4.8,5.5-8,7.6a9.6,9.6,0,0,1-7.2,1.7,33.2,33.2,0,0,1-8.9-2.9c-1.1-.6-1.7-1.1-1.2-2.5,2-5.4,5.9-7.6,11.8-6.4,2.3.4,4.5,1.1,6.8,1.5A44.9,44.9,0,0,0,156.7,24.9Z" fill="#02415e"/><path d="M222,73.9h-9.4a10.8,10.8,0,0,1-8.5-4.3,30.6,30.6,0,0,1-4.2-8.5c-.4-1-.4-1.9.9-2.4,3.9-1.5,8.3-2.1,11.6,2.1S217.7,70,222,73.9Z" fill="#02415e"/><path d="M204.3,52.1c-2.8.5-5.1,1.6-7.6,2.1-4.1.9-7.9.5-11-2.7a41.5,41.5,0,0,1-4.5-4.9c-1.9-2.9-1.9-3.3,1.2-5.1s7.3-1.8,10.8.9S200.2,49.1,204.3,52.1Z" fill="#02415e"/><path d="M232.6,153.9c-2.5-2.6-5.5-4.6-7.5-7.5a9.6,9.6,0,0,1-1.9-6.7,26.9,26.9,0,0,1,3-9.6c.7-1.5,1.7-1.9,3.2-1.1,3.6,2,6.8,5.1,5.8,10.2S232.6,148.8,232.6,153.9Z" fill="#02415e"/><path d="M232.6,99.5c-4-1.2-7.3-2-10.4-3.1a9.6,9.6,0,0,1-5.6-5.7c-1.3-2.9-1.6-6-2-9.1-.2-1.4.5-2.1,1.9-2.4,4.6-.8,8.6,1.2,10.4,5.3S229.7,94.4,232.6,99.5Z" fill="#02415e"/><path d="M102.9,235.3c5.1-.4,9.7-1.1,14.2-1.8s9.7,1.8,11.1,6.9c.2,1,.3,1.7-.8,2.3a23.2,23.2,0,0,1-11.8,2.6c-3.2-.2-5.6-2-7.5-4.3A43.4,43.4,0,0,0,102.9,235.3Z" fill="#02415e"/><path d="M157.9,229c1-2.5,1.3-5.1,2-7.6,1.3-4.8,4.6-7.7,9.7-8.8l4.5-.7c3.3-.5,3.9-.1,3.9,2.9.2,5-1.4,7.5-6.2,9.4S162.5,226.9,157.9,229Z" fill="#02415e"/><path d="M52.3,207.2c4.5,2.9,9.5,4,14,6.1s6.3,5.7,5.4,10.6c-.3,1.7-1.2,2.4-3,2l-4.2-.8c-6.3-1.5-10.2-5-10.8-11.4A51.4,51.4,0,0,0,52.3,207.2Z" fill="#02415e"/><path d="M205,201.9c-.2-4.5-2.4-8.1-2.4-12.2a7.7,7.7,0,0,1,1.1-3.9,25.4,25.4,0,0,1,8.1-8.2,2.1,2.1,0,0,1,3.1.4c3.1,3.9,3.2,8,.2,12a55.7,55.7,0,0,1-5.1,5.8C208.4,197.5,206.9,199.5,205,201.9Z" fill="#02415e"/><path d="M76.1,36.3c-.4,3.9.9,7.7-.3,11.5s-5.1,6.6-9.2,8.5-6,1.5-6.6-3.7,1.6-6.6,4.7-8.8S72.5,39.3,76.1,36.3Z" fill="#02415e"/><path d="M98.5,20.2l-.6.8a100.7,100.7,0,0,0-10.4,7.8c-4.4,3.6-8.7,3.4-12.8-.2-1.2-1.1-1.4-2-.4-3.1s2.8-3.3,4.4-4.8c4-3.8,8.7-4.7,14-2.5C94.5,19,96.5,19.5,98.5,20.2Z" fill="#02415e"/><path d="M101.6,25.4c-.8,2.7-1.3,5.2-1.9,7.7-1.2,4.7-4.4,7.6-9.4,8.7a34,34,0,0,1-4.6.7c-3.7.5-4.3-.1-4.1-3.6s1.7-7.1,6-8.7S97.1,27.8,101.6,25.4Z" fill="#02415e"/><path d="M76,224.9c5.3,1.3,10.7.8,15.9,2.1a9.2,9.2,0,0,1,7,9.5c-.1,1-.7,1.4-1.6,1.6a23.2,23.2,0,0,1-11.4-.3c-2.9-.9-4.7-3-6.2-5.5S77.7,227.3,76,224.9Z" fill="#02415e"/><path d="M109.9,22.4c-3.1,0-7.5-3.1-8.3-5.6-.3-.9.2-1.4.8-1.9a24.7,24.7,0,0,1,10.4-5.4c2.5-.7,4.7.2,6.8,1.2s4.4,3.3,7,4.5c.8.3.7.9,0,1.1-5.4,1.5-10.1,4.5-15.4,6Z" fill="#02415e"/><path d="M32.3,73c-1.9,5.7-1.5,11-2.6,16.1s-4.2,7.1-9.2,7.3c-1.2,0-1.8-.3-2-1.4a37.9,37.9,0,0,1-.3-8.9c.6-4.8,3.5-7.7,7.8-9.7A51.2,51.2,0,0,0,32.3,73Z" fill="#02415e"/><path d="M241.7,124.6c-1.4-4.9-4.2-9.1-5.9-13.8s-.2-8.3,4-11.1c1.2-.8,2-.9,2.9.3a35.2,35.2,0,0,1,4.3,6.8,10.9,10.9,0,0,1-.6,10.9C245,120.1,242.9,122,241.7,124.6Z" fill="#02415e"/><path d="M184,29.9c-5.6-1.6-11-1.4-16.1-2.5a9.1,9.1,0,0,1-7.1-9.7c.1-1,.8-1.3,1.7-1.4,9.4-1.2,15.1-.5,18.8,8.5A53,53,0,0,0,184,29.9Z" fill="#02415e"/><path d="M102.9,229.1c2.2-2.1,4.4-4.2,6.7-6.2a10.9,10.9,0,0,1,10.7-2.2,25.4,25.4,0,0,1,7.1,2.7,1.6,1.6,0,0,1,.9,2.2c-1.8,5.1-5.8,7.5-11.5,6.5s-9-2.2-13.7-2.4Z" fill="#02415e"/><path d="M48.9,50.3C46.4,55,45.3,60,43,64.6a8.9,8.9,0,0,1-10.3,4.7c-1.4-.3-2.1-1-1.9-2.4.4-4.1,1.3-8,3.8-11.5A9.7,9.7,0,0,1,40.1,52C42.9,51.1,45.9,51.1,48.9,50.3Z" fill="#02415e"/><path d="M21.2,100.7c-.1,5.8,2.1,11.2,1.9,16.9a9,9,0,0,1-7.2,8.1,1.7,1.7,0,0,1-2.1-1.3c-1.6-3.7-2.9-7.6-2.5-11.7s1.8-4.8,3.8-6.6Z" fill="#02415e"/><path d="M187.8,33.5c0-4.8,1.1-5.6,5.2-4.7,1.4.3,2.8.8,4.2,1.2,5.1,1.5,7.7,4.9,8.6,9.7a38.6,38.6,0,0,0,1.2,5.7c.3,1-.2,1.4-1.2.8-4-2.3-8.6-3.4-12.9-5.3A8,8,0,0,1,187.8,33.5Z" fill="#02415e"/><path d="M22.5,158c2.6,4.8,6.3,8.2,9.1,12.2s2.6,8.2-.9,12.1c-1,1.1-1.7,1.1-2.8.3a33.5,33.5,0,0,1-6.1-5.8,11.2,11.2,0,0,1-1.7-11.6C20.9,163,21.6,160.8,22.5,158Z" fill="#02415e"/><path d="M241.6,165.3c.4,6.3-2.7,10.9-9.3,13.3a17.4,17.4,0,0,0-2.7,1.4c-.5.2-.9.9-1.5.4s-.3-.9-.1-1.3c1.3-4.3,1-8.8,1.8-13.1s3.5-7.1,8.6-7.9c1.6-.2,2.6.1,2.8,1.8A22.8,22.8,0,0,1,241.6,165.3Z" fill="#02415e"/><path d="M37.6,75c1.3,2.5,3,4.7,4.2,7s2.3,7,.5,10.7a48.2,48.2,0,0,1-4.8,7,2,2,0,0,1-3.1.3,9.2,9.2,0,0,1-3.7-10.2C32.4,84.6,36.1,80.3,37.6,75Z" fill="#02415e"/><path d="M183.3,35.3c-3.6,1.4-5.9,3.1-8.5,4.5a11.5,11.5,0,0,1-10.8,0,30.7,30.7,0,0,1-5.6-3.8c-2.6-2.4-2.6-2.8-.1-5.1s6.2-3.7,10.7-1.9S177.6,33.8,183.3,35.3Z" fill="#02415e"/><path d="M132.4,238.6c4.6-1.4,8.5-3.7,12.7-5.4s9.4-1,12.4,3.7c.7,1,.8,1.8-.3,2.7-2.9,2.3-5.9,4.3-9.7,5.1a10.2,10.2,0,0,1-7.8-1.2C137.2,242,135,240,132.4,238.6Z" fill="#02415e"/><path d="M23.9,127.9c2.9,1.7,5.8,3.2,8.5,5s4.3,6.1,4.4,9.9c.1,2.1-.5,4.3-.7,6.4s-1.2,2.1-2.9,1.9a9.2,9.2,0,0,1-8-7c-1.1-4.2-.2-8.5-1.1-12.7C23.9,130.3,23.4,129.2,23.9,127.9Z" fill="#02415e"/><path d="M54.4,53.1c.4,3.5,2.2,6.6,2.6,10,.5,5.9-3.5,9.4-7.7,12.6s-3.9,2.3-5.7-1.3-1.7-6.8.9-10S51.3,57.2,54.4,53.1Z" fill="#02415e"/><path d="M187.9,222.4c3.6-3.7,5.8-7.9,8.9-11.7s7.5-4.6,12.1-2.4c1.2.6,1.6,1.3,1.1,2.5a30.8,30.8,0,0,1-5.4,9,10.2,10.2,0,0,1-7.7,3.2C193.9,223,191,222.5,187.9,222.4Z" fill="#02415e"/><path d="M238,153.5c.7-5.9-1.8-11.4-1.5-17.2.2-3.5,3.6-6.9,7.3-7.6A1.8,1.8,0,0,1,246,130c1.6,3.9,2.8,7.9,2.3,12.2a7.9,7.9,0,0,1-2.4,4.7c-2.3,2.3-4.7,4.5-7.1,6.7Z" fill="#02415e"/><path d="M18.2,129.4c1.5,6,4.8,10.8,6.2,16.2.8,3.2-1.9,8.2-5.1,9.5-1,.4-1.5.1-2.2-.6-6.5-6.2-7.1-13.7-1.8-20.8C16.2,132.5,16.9,131.2,18.2,129.4Z" fill="#02415e"/><path d="M156.4,19c-5.6.3-10.9,1.7-16.3,2.1-3.9.3-8.7-4.1-8.7-7.8,0-1.1.8-1.6,1.7-1.9a25,25,0,0,1,10.8-2.3,9.8,9.8,0,0,1,5.9,2.7C152.3,13.9,153.9,16.7,156.4,19Z" fill="#02415e"/><path d="M183.4,218.2c.9-3.3-.5-6.4.1-9.6a11.6,11.6,0,0,1,5.7-8.4,40.2,40.2,0,0,1,6.6-3.2c1.5-.5,2.4-.2,3,1.3,2,4.9.9,8.7-3.4,12S187.2,215.1,183.4,218.2Z" fill="#02415e"/><path d="M236,126.7c-2.5-2-5.3-2.9-7.7-4.5a10.4,10.4,0,0,1-5.2-9.1,37.8,37.8,0,0,1,.4-7.5c.4-2,1.5-2.6,3.4-2.2,3.6.8,6.6,2.4,7.5,6.1C235.7,115.1,234.5,120.9,236,126.7Z" fill="#02415e"/><path d="M161.1,234.3c4.3-2.7,7.6-6.2,11.5-9s8.6-2.9,12.6.7c1,.9,1,1.6.3,2.5a29.9,29.9,0,0,1-6.2,6.6c-3,2.3-6.4,2.6-9.9,1.8S164.1,234.8,161.1,234.3Z" fill="#02415e"/><path d="M222.1,179.5c-1.4-2.8-3.3-5.2-4.6-7.8a10.4,10.4,0,0,1,0-10,28.7,28.7,0,0,1,4.6-6.9c1.2-1.3,2.1-1.3,3.4-.2,3.4,3,4.9,6.4,3.3,10.6S223.6,174.4,222.1,179.5Z" fill="#02415e"/><path d="M34,184.3c4.2,4.7,9.5,7,13.4,10.9s2.6,7.4.8,11c-.6,1.2-1.6,1.1-2.7.7a25.2,25.2,0,0,1-9.4-6,8.1,8.1,0,0,1-2.1-4.6C33.5,192.6,34.1,188.9,34,184.3Z" fill="#02415e"/><path d="M66.3,199.9c4.8-.2,7.5,2.6,10.3,5.4a17.7,17.7,0,0,1,1.6,2.2c2.4,3.3,2.2,3.7-1.4,5.6s-6.6,1.7-9.7-.7-6.9-6.5-10.9-9.1c-.5-.3-1.3-1.2-.1-1.3C59.7,201.6,62.9,199.6,66.3,199.9Z" fill="#02415e"/><path d="M56,47.3c-.2,0-.5.1-.7,0-5.8-.4-6.7-1.9-4.3-6.7a24.9,24.9,0,0,1,4.4-6.2,10.3,10.3,0,0,1,7.6-3c2.4,0,4.7.3,7.1.4s1.4.8.7,1.5c-3.2,3.4-5.5,7.4-8.4,11A8,8,0,0,1,56,47.3Z" fill="#02415e"/><path d="M210.1,204.5c3.4-5.2,4.4-10.8,7.2-15.7,1.8-3.2,6.3-4.7,10-3.6a2,2,0,0,1,1.6,2.1c.5,8.6-4.6,14.7-13.5,16A45.5,45.5,0,0,0,210.1,204.5Z" fill="#02415e"/><path d="M129.8,21.4c-2.7,2.8-3.6,5.8-5.4,8.3a10.1,10.1,0,0,1-9.1,4.6c-2.5,0-5.1.2-7.6-.5s-2.2-1.1-1.8-2.6c1.2-5.4,3.3-8.4,9.5-8.6l6.8-.4C124.5,22.1,126.8,21.7,129.8,21.4Z" fill="#02415e"/><path d="M129.9,233.1a41.4,41.4,0,0,0,4.5-7.1c2.5-4.4,6.5-6.4,11.8-6.2l4.8.6c3,.5,3.4,1.1,2.6,4-1.5,5.2-4.2,7.3-9.8,7.5A101.8,101.8,0,0,0,129.9,233.1Z" fill="#02415e"/><path d="M225.8,63.6c-.5,1.6.9,4.2-.7,5.1s-2.9-2-4.4-3.1a76.4,76.4,0,0,1-8.5-6.5c-3.5-3.3-2.1-8.4-.6-11.2.5-.9,1.2-.8,2-.5,4.2,1.5,8,3.6,10.7,7.1S225.7,60.3,225.8,63.6Z" fill="#02415e"/><path d="M36.5,114.1c-.1,3.8-1.5,7.2-3.2,10.6-.6,1.3-1.5,1.3-2.7.8-4.5-1.8-6.4-5-6.1-9.7s2.1-9,2.3-13.6c0-.5.3-1.9,1.3-.8s5.4,4.5,7,7.6A9.4,9.4,0,0,1,36.5,114.1Z" fill="#02415e"/><path d="M237.1,96c-2.6-4.6-6.6-8.1-9.5-12.4a9.1,9.1,0,0,1,1.7-11.8,1.3,1.3,0,0,1,2-.2c4.1,3.1,8.1,6.2,9.1,11.5.4,2.4-.3,4.6-1.1,6.8S237.7,93.8,237.1,96Z" fill="#02415e"/><path d="M37.7,180.6h8.9a10.3,10.3,0,0,1,8.9,4.2,33.5,33.5,0,0,1,4.2,8.2c.4,1.3.3,2.2-1.1,2.8-3.5,1.7-8.2,1-10.7-1.7S42.2,184.8,37.7,180.6Z" fill="#02415e"/><path d="M144.6,126.3a2,2,0,0,0,1.5-.8c3.9-3.2,8-4.2,13-2.3a7.1,7.1,0,0,0,7.6-1.5c3-2.7,6.9-3.5,10.6-3.8a14,14,0,0,0,7.8-3.2,91.9,91.9,0,0,1,9.4-6.5c-2.2,5.7-4.1,11.3-10.3,14.5a22.9,22.9,0,0,1-11.4,3,6.4,6.4,0,0,0-5.4,2.7,4.2,4.2,0,0,1-1.8,1.7c-3.3.9-3.6,3.1-3.5,5.8s-1.5,4.3-2.6,6.2l-6.8,11.2a22.2,22.2,0,0,0-2.4,6c-.2.7-.7,1.5,0,2.1s1.5-.1,2.1-.5c4.7-2.4,8.1-6.1,11.3-10,1-1.2,2-2.4,2.9-3.7s.6-.6,1.1-.4.4.7.3,1.1l-.6,1.1a46.2,46.2,0,0,1-10.8,13.4c-2.1,1.8-4.5,3.4-7.6,2.2s-4.4-4-4.4-7.2a23.4,23.4,0,0,1,2.6-11c2-4.2,4.1-8.4,6.1-12.5.3-.7.8-1.2.6-2.2a4.9,4.9,0,0,0-3.6,2.2c-.8,1-1.4,2.4-2.5,3.1-3.8,2.4-4,6-4,9.7v16.2c0,1.2,0,2.5-1.3,3.2s-2.6,0-3.8-.7c-3-2.1-4.6-5.1-5.9-8.3a44.9,44.9,0,0,1-3.1-15.3c-.1-2.4-.8-4.1-3.6-4.5l-.9-.3c-5.4-1.8-5.4-1.8-7.1,3.4a90.2,90.2,0,0,1-8.7,19.6c-6.5,10.2-16.3,7.4-22.3,2.5-4.1-3.4-6.7-7.8-8.8-12.4a105.9,105.9,0,0,1-4.9-11.6c-2.5-7.3-1.4-14.4,2.7-20.9,2.5-3.9,5.1-4.9,9.8-3.7,8.5,2.1,16.4,5.9,24.3,9.6l2,1c1.7,1,2.5.6,3.1-1.2a150.3,150.3,0,0,1,7.8-20.2A102.3,102.3,0,0,1,131.6,88c2.6-3.7,5.8-6.8,10.4-8.2s5.3-.1,4.7,3.5c-2.4,13.7-2.1,27.4-2.4,41.2C144.3,125.1,144,125.8,144.6,126.3Zm-57.7,2.4c.5,7.1,1.7,13.9,5.7,20.1s8,5.4,11.6,0,5.2-10.1,7.1-15.4c.6-1.7.1-2.5-1.5-3.2-5.4-2.3-10.7-4.8-16-7.2s-6.4-.8-6.9,3.8A12.1,12.1,0,0,0,86.9,128.7Zm45.6-30.2a183.1,183.1,0,0,0-9.7,25.5c-1.5,5-1.4,5.2,4,6.9,1.6.5,2.4.2,2.4-1.5A213.1,213.1,0,0,1,132.5,98.5Z" fill="#02415e"/><path d="M156.9,119.7a3,3,0,0,1-2.7-2.1,2,2,0,0,1,1.3-2.8,28.5,28.5,0,0,1,3.1-1.2c.8-.2,1.8-1.2,2.5-.5s.1,1.9-.2,2.9S159.3,119.4,156.9,119.7Z" fill="#02415e"/></svg>