<svg id="Layer_1" data-name="Layer 1" xmlns="http://www.w3.org/2000/svg" width="64" height="64" viewBox="0 0 64 64"><path d="M19.4,54.7c.8-.3,1.3-.9,2.1-1.2a3.1,3.1,0,0,1,2.3.1,5.2,5.2,0,0,1,1.7,1.2c.3.2.4.4.1.8a2.1,2.1,0,0,1-2.9.7A33.6,33.6,0,0,1,19.4,54.7Z" fill="#02415e"/><path d="M6.9,38.8l1.6.4a3.1,3.1,0,0,1,2.4,2,12.9,12.9,0,0,1,.4,1.9c0,.5-.2.7-.7.7a2.2,2.2,0,0,1-2.4-1.4C7.7,41.3,7.5,40,6.9,38.8Z" fill="#02415e"/><path d="M39.2,6.2a18,18,0,0,1-2,1.9,2.4,2.4,0,0,1-1.8.4,10.1,10.1,0,0,1-2.3-.7.5.5,0,0,1-.3-.6,2.4,2.4,0,0,1,3-1.6l1.7.4Z" fill="#02415e"/><path d="M55.5,18.5H53.1A3.1,3.1,0,0,1,51,17.4a10,10,0,0,1-1-2.1c-.1-.3-.1-.5.2-.6s2.1-.6,2.9.5A18.5,18.5,0,0,0,55.5,18.5Z" fill="#02415e"/><path d="M51.1,13a10.6,10.6,0,0,0-1.9.6,2.9,2.9,0,0,1-2.8-.7,6.9,6.9,0,0,1-1.1-1.3c-.5-.7-.5-.8.3-1.2a2.1,2.1,0,0,1,2.7.2A32.2,32.2,0,0,0,51.1,13Z" fill="#02415e"/><path d="M58.2,38.5a17,17,0,0,1-1.9-1.9,2.2,2.2,0,0,1-.5-1.7,10.9,10.9,0,0,1,.7-2.4c.2-.4.5-.4.9-.2a2.3,2.3,0,0,1,1.4,2.5A15.1,15.1,0,0,0,58.2,38.5Z" fill="#02415e"/><path d="M58.2,24.9l-2.7-.8a2.4,2.4,0,0,1-1.4-1.4,9.5,9.5,0,0,1-.5-2.3c0-.4.2-.5.5-.6a2.2,2.2,0,0,1,2.6,1.3A23,23,0,0,0,58.2,24.9Z" fill="#02415e"/><path d="M25.7,58.8l3.6-.4A2.1,2.1,0,0,1,32,60.1c.1.3.1.4-.2.6a5.8,5.8,0,0,1-2.9.6,2.7,2.7,0,0,1-1.9-1A8.7,8.7,0,0,0,25.7,58.8Z" fill="#02415e"/><path d="M39.5,57.3c.2-.7.3-1.3.5-1.9a2.9,2.9,0,0,1,2.4-2.3h1.1c.8-.2,1,0,1,.7a2.3,2.3,0,0,1-1.6,2.4A23,23,0,0,0,39.5,57.3Z" fill="#02415e"/><path d="M13.1,51.8a21.7,21.7,0,0,0,3.5,1.5A2.3,2.3,0,0,1,17.9,56c-.1.4-.3.6-.7.5l-1.1-.2a3.2,3.2,0,0,1-2.7-2.9A11,11,0,0,0,13.1,51.8Z" fill="#02415e"/><path d="M51.2,50.5c0-1.2-.6-2-.5-3.1a2.9,2.9,0,0,1,.2-.9A6,6,0,0,1,53,44.4c.3-.2.5-.2.7.1a2.3,2.3,0,0,1,.1,3l-1.3,1.4Z" fill="#02415e"/><path d="M19,9.1c-.1.9.3,1.9-.1,2.8s-1.2,1.7-2.2,2.2-1.6.4-1.7-1A2.2,2.2,0,0,1,16.2,11Z" fill="#02415e"/><path d="M24.6,5.1h-.1a17.9,17.9,0,0,0-2.6,2,2.2,2.2,0,0,1-3.2-.1c-.3-.2-.4-.4-.1-.7l1.1-1.2a2.9,2.9,0,0,1,3.5-.6Z" fill="#02415e"/><path d="M25.4,6.3c-.2.7-.3,1.3-.5,2a2.7,2.7,0,0,1-2.3,2.1l-1.2.2c-.9.1-1.1,0-1-.9s.4-1.8,1.5-2.1S24.3,6.9,25.4,6.3Z" fill="#02415e"/><path d="M19,56.2c1.3.3,2.7.2,4,.5a2.3,2.3,0,0,1,1.7,2.4c0,.3-.1.4-.4.4a5.3,5.3,0,0,1-2.8-.1,2.6,2.6,0,0,1-1.6-1.3A16.3,16.3,0,0,0,19,56.2Z" fill="#02415e"/><path d="M27.5,5.6a2.7,2.7,0,0,1-2.1-1.4c-.1-.2,0-.3.2-.5a6.4,6.4,0,0,1,2.6-1.3,2,2,0,0,1,1.7.3c.6.3,1.1.8,1.8,1.1s.1.2-.1.3-2.5,1.1-3.8,1.5Z" fill="#02415e"/><path d="M8.1,18.3a30.6,30.6,0,0,0-.7,4,2.2,2.2,0,0,1-2.3,1.8c-.3,0-.4-.1-.5-.4s-.1-1.4-.1-2.2a3.1,3.1,0,0,1,2-2.4Z" fill="#02415e"/><path d="M60.4,31.2A36.5,36.5,0,0,0,59,27.7a2.3,2.3,0,0,1,.9-2.8.5.5,0,0,1,.8.1,9.9,9.9,0,0,1,1.1,1.7,2.9,2.9,0,0,1-.2,2.7A11.3,11.3,0,0,0,60.4,31.2Z" fill="#02415e"/><path d="M46,7.5a29.8,29.8,0,0,0-4-.6,2.5,2.5,0,0,1-1.8-2.5c0-.2.2-.3.4-.3,2.4-.3,3.8-.2,4.7,2.1Z" fill="#02415e"/><path d="M25.7,57.3l1.7-1.6a2.7,2.7,0,0,1,2.7-.5,4.9,4.9,0,0,1,1.7.6c.3.2.4.3.3.6A2.3,2.3,0,0,1,29.2,58a34.3,34.3,0,0,0-3.4-.6Z" fill="#02415e"/><path d="M12.2,12.6c-.6,1.2-.9,2.4-1.4,3.5a2.2,2.2,0,0,1-2.6,1.2c-.4-.1-.5-.2-.5-.6a5.3,5.3,0,0,1,1-2.9A2.9,2.9,0,0,1,10,13Z" fill="#02415e"/><path d="M5.3,25.2c0,1.4.5,2.8.5,4.2a2.2,2.2,0,0,1-1.8,2,.5.5,0,0,1-.6-.3,5.8,5.8,0,0,1-.6-2.9,3,3,0,0,1,1-1.7Z" fill="#02415e"/><path d="M46.9,8.4c0-1.2.3-1.4,1.3-1.2l1.1.3a3,3,0,0,1,2.2,2.4,5.9,5.9,0,0,0,.2,1.4q.1.4-.3.3a30.9,30.9,0,0,0-3.2-1.4A2.1,2.1,0,0,1,46.9,8.4Z" fill="#02415e"/><path d="M5.6,39.5c.7,1.2,1.6,2,2.3,3.1a2.3,2.3,0,0,1-.2,3c-.3.2-.5.3-.7,0a5,5,0,0,1-1.5-1.4A2.6,2.6,0,0,1,5,41.3,18.9,18.9,0,0,0,5.6,39.5Z" fill="#02415e"/><path d="M60.4,41.3a3.1,3.1,0,0,1-2.3,3.3l-.7.4c-.1.1-.2.2-.4.1s0-.2,0-.3.3-2.2.5-3.3a2.2,2.2,0,0,1,2.1-2c.4,0,.6,0,.7.5A5.3,5.3,0,0,1,60.4,41.3Z" fill="#02415e"/><path d="M9.4,18.7c.3.7.8,1.2,1.1,1.8a3.2,3.2,0,0,1,.1,2.7L9.4,24.9a.5.5,0,0,1-.8.1,2.4,2.4,0,0,1-.9-2.6C8.1,21.2,9,20.1,9.4,18.7Z" fill="#02415e"/><path d="M45.8,8.8,43.7,9.9a2.6,2.6,0,0,1-2.7,0A4.2,4.2,0,0,1,39.6,9c-.6-.6-.7-.7,0-1.3a2.1,2.1,0,0,1,2.7-.4A23,23,0,0,0,45.8,8.8Z" fill="#02415e"/><path d="M33.1,59.6c1.1-.3,2.1-.9,3.2-1.3a2.3,2.3,0,0,1,3.1.9c.2.3.2.5-.1.7a5.6,5.6,0,0,1-2.4,1.3,3.4,3.4,0,0,1-2-.3C34.3,60.5,33.8,60,33.1,59.6Z" fill="#02415e"/><path d="M6,32l2.1,1.2a2.8,2.8,0,0,1,1.1,2.5A8.8,8.8,0,0,1,9,37.3c0,.4-.3.5-.7.5a2.3,2.3,0,0,1-2-1.8c-.3-1,0-2.1-.3-3.2A2.1,2.1,0,0,1,6,32Z" fill="#02415e"/><path d="M13.6,13.3a22.7,22.7,0,0,1,.6,2.5c.2,1.5-.8,2.3-1.9,3.1s-.9.6-1.4-.3a2.3,2.3,0,0,1,.2-2.5C11.9,15.2,12.8,14.3,13.6,13.3Z" fill="#02415e"/><path d="M47,55.6c.9-.9,1.4-2,2.2-2.9a2.2,2.2,0,0,1,3-.6.4.4,0,0,1,.3.6,5.2,5.2,0,0,1-1.4,2.2,2.3,2.3,0,0,1-1.9.9Z" fill="#02415e"/><path d="M59.5,38.4c.2-1.5-.5-2.9-.4-4.3A2.3,2.3,0,0,1,61,32.2c.3-.1.4.1.5.3a6.6,6.6,0,0,1,.6,3.1,2.4,2.4,0,0,1-.6,1.1l-1.8,1.7Z" fill="#02415e"/><path d="M4.5,32.4c.4,1.4,1.2,2.6,1.6,4a2.5,2.5,0,0,1-1.3,2.4.4.4,0,0,1-.5-.2,3.6,3.6,0,0,1-.5-5.2A8.6,8.6,0,0,0,4.5,32.4Z" fill="#02415e"/><path d="M39.1,4.7c-1.4.1-2.7.5-4.1.6a2.3,2.3,0,0,1-2.1-2,.4.4,0,0,1,.4-.4A4.9,4.9,0,0,1,36,2.3a2.8,2.8,0,0,1,1.5.6C38.1,3.5,38.5,4.2,39.1,4.7Z" fill="#02415e"/><path d="M45.8,54.6c.3-.9-.1-1.7.1-2.5A2.8,2.8,0,0,1,47.3,50l1.7-.7c.3-.2.5-.1.7.3a2.3,2.3,0,0,1-.9,3C47.9,53.3,46.8,53.8,45.8,54.6Z" fill="#02415e"/><path d="M59,31.7a18.6,18.6,0,0,0-1.9-1.1,2.7,2.7,0,0,1-1.3-2.3,11.5,11.5,0,0,1,.1-1.9c.1-.5.3-.6.8-.5a2,2,0,0,1,1.9,1.5C58.9,28.8,58.6,30.2,59,31.7Z" fill="#02415e"/><path d="M40.3,58.6l2.9-2.3a2.2,2.2,0,0,1,3.1.2c.2.2.3.4.1.6a12.9,12.9,0,0,1-1.6,1.7,2.8,2.8,0,0,1-2.5.4C41.6,59.1,41,58.7,40.3,58.6Z" fill="#02415e"/><path d="M55.5,44.9c-.3-.7-.8-1.3-1.1-2a2.5,2.5,0,0,1,0-2.5,9.9,9.9,0,0,1,1.1-1.7.6.6,0,0,1,.9,0,2.2,2.2,0,0,1,.8,2.6A39.7,39.7,0,0,0,55.5,44.9Z" fill="#02415e"/><path d="M8.5,46.1c1.1,1.1,2.4,1.7,3.4,2.7s.6,1.8.1,2.8-.4.2-.6.1A6.1,6.1,0,0,1,9,50.2a1.6,1.6,0,0,1-.5-1.1C8.4,48.1,8.5,47.2,8.5,46.1Z" fill="#02415e"/><path d="M16.6,50a2.9,2.9,0,0,1,2.5,1.3l.4.6c.6.8.6.9-.3,1.4a2.1,2.1,0,0,1-2.4-.2c-1-.7-1.7-1.6-2.7-2.3s-.4-.3-.1-.3A11.9,11.9,0,0,1,16.6,50Z" fill="#02415e"/><path d="M14,11.8h-.2c-1.4-.1-1.7-.4-1-1.7a4.8,4.8,0,0,1,1.1-1.5,2.1,2.1,0,0,1,1.8-.7h1.8c.4,0,.4.1.2.3s-1.4,1.9-2.1,2.8A1.9,1.9,0,0,1,14,11.8Z" fill="#02415e"/><path d="M52.5,51.1c.9-1.3,1.1-2.7,1.8-3.9a2.2,2.2,0,0,1,2.5-.9.5.5,0,0,1,.4.5,3.6,3.6,0,0,1-3.3,4Z" fill="#02415e"/><path d="M32.5,5.4a8.1,8.1,0,0,0-1.4,2,2.7,2.7,0,0,1-2.3,1.2H26.9a.5.5,0,0,1-.4-.7c.3-1.4.8-2.1,2.3-2.1l1.8-.2Z" fill="#02415e"/><path d="M32.5,58.3a8.7,8.7,0,0,0,1.1-1.8A2.8,2.8,0,0,1,36.5,55h1.3c.7.1.8.3.6,1A2.3,2.3,0,0,1,35.9,58Z" fill="#02415e"/><path d="M56.4,15.9c-.1.4.3,1.1-.1,1.3s-.7-.5-1.1-.8L53,14.8a2.4,2.4,0,0,1-.1-2.8c.1-.2.3-.2.5-.2a5.6,5.6,0,0,1,2.7,1.8A3.6,3.6,0,0,1,56.4,15.9Z" fill="#02415e"/><path d="M9.1,28.5a6.5,6.5,0,0,1-.8,2.7c-.1.3-.3.3-.7.2a2.3,2.3,0,0,1-1.5-2.5c.1-1.1.6-2.2.6-3.3s.1-.5.3-.3a11.2,11.2,0,0,1,1.8,2A2.7,2.7,0,0,1,9.1,28.5Z" fill="#02415e"/><path d="M59.3,24c-.7-1.2-1.7-2-2.4-3.1a2.3,2.3,0,0,1,.4-2.9c.2-.2.3-.2.5-.1a5,5,0,0,1,2.3,2.9,3.4,3.4,0,0,1-.3,1.7A8.8,8.8,0,0,0,59.3,24Z" fill="#02415e"/><path d="M9.4,45.1a16,16,0,0,0,2.2,0,2.8,2.8,0,0,1,2.3,1.1,6.8,6.8,0,0,1,1,2.1c.1.3.1.5-.3.7a2.3,2.3,0,0,1-2.6-.5C11,47.5,10.6,46.2,9.4,45.1Z" fill="#02415e"/><path d="M36.1,31.6a.5.5,0,0,0,.4-.2,3.1,3.1,0,0,1,3.3-.6,1.7,1.7,0,0,0,1.9-.4,4.1,4.1,0,0,1,2.6-.9,4.4,4.4,0,0,0,2-.8,18.8,18.8,0,0,1,2.3-1.6c-.5,1.4-1,2.8-2.6,3.6a4.7,4.7,0,0,1-2.8.7,1.9,1.9,0,0,0-1.4.7c-.1.2-.2.4-.4.4s-.9.8-.9,1.5a2.8,2.8,0,0,1-.6,1.5l-1.7,2.8a4.7,4.7,0,0,0-.6,1.5c-.1.2-.2.4,0,.5s.3,0,.5-.1a8.4,8.4,0,0,0,2.8-2.5l.8-.9c0-.1.1-.2.2-.1a.4.4,0,0,1,.1.3.3.3,0,0,1-.1.2,11.3,11.3,0,0,1-2.7,3.4c-.6.4-1.2.9-1.9.6a2.1,2.1,0,0,1-1.2-1.9,6.8,6.8,0,0,1,.7-2.7l1.5-3.1a1.1,1.1,0,0,0,.2-.6,1.1,1.1,0,0,0-.9.6c-.2.2-.4.6-.6.7s-1,1.5-1,2.5-.1,2.7-.1,4,.1.7-.3.8-.6,0-.9-.2a3.7,3.7,0,0,1-1.5-2,12.9,12.9,0,0,1-.8-3.9.9.9,0,0,0-.9-1.1h-.2c-1.4-.4-1.4-.4-1.8.9A19.4,19.4,0,0,1,27.3,40c-1.6,2.5-4,1.9-5.5.6a6.8,6.8,0,0,1-2.2-3.1,25.5,25.5,0,0,1-1.3-2.9,6,6,0,0,1,.7-5.2,1.9,1.9,0,0,1,2.5-.9,25.9,25.9,0,0,1,6,2.4l.6.2c.4.3.6.2.7-.3a43.4,43.4,0,0,1,2-5A28.2,28.2,0,0,1,32.9,22a5,5,0,0,1,2.6-2.1q1.3-.4,1.2.9a71.2,71.2,0,0,0-.6,10.3C36.1,31.3,36,31.4,36.1,31.6Zm-14.4.6a11.1,11.1,0,0,0,1.4,5c.9,1.4,2,1.4,3,0a13.6,13.6,0,0,0,1.7-3.9c.2-.4.1-.6-.4-.8l-3.9-1.7c-1.2-.5-1.6-.3-1.8.9Zm11.4-7.6A49.3,49.3,0,0,0,30.7,31c-.4,1.2-.4,1.3,1,1.7s.6.1.6-.4A69.4,69.4,0,0,1,33.1,24.6Z" fill="#02415e"/><path d="M39.2,29.9a.6.6,0,0,1-.6-.5c-.2-.3-.1-.6.3-.7l.7-.3c.3-.1.5-.3.7-.1s0,.5-.1.7A1.2,1.2,0,0,1,39.2,29.9Z" fill="#02415e"/></svg>