<svg id="Layer_1" data-name="Layer 1" xmlns="http://www.w3.org/2000/svg" width="32" height="32" viewBox="0 0 32 32"><path d="M9.7,27.4l1-.6a1.3,1.3,0,0,1,1.2,0l.9.6c.1.1.1.2,0,.4a1.2,1.2,0,0,1-1.5.4Z" fill="#02415e"/><path d="M3.4,19.4l.9.2a1.2,1.2,0,0,1,1.1,1,2.9,2.9,0,0,1,.2.9c.1.3,0,.4-.3.4a1.1,1.1,0,0,1-1.2-.7C3.8,20.6,3.7,20,3.4,19.4Z" fill="#02415e"/><path d="M19.6,3.1c-.4.3-.6.7-1,1l-.9.2-1.1-.4c-.2-.1-.2-.1-.2-.3a1.2,1.2,0,0,1,1.5-.8l.8.2Z" fill="#02415e"/><path d="M27.8,9.2H26.6a1.4,1.4,0,0,1-1.1-.5A3.7,3.7,0,0,1,25,7.6c-.1-.1-.1-.2.1-.3a1.3,1.3,0,0,1,1.5.3A8.3,8.3,0,0,0,27.8,9.2Z" fill="#02415e"/><path d="M25.5,6.5l-.9.3a1.5,1.5,0,0,1-1.4-.4c-.2-.2-.4-.3-.5-.6s-.3-.4.1-.6a1,1,0,0,1,1.3.1Z" fill="#02415e"/><path d="M29.1,19.2a8.1,8.1,0,0,1-1-.9,2.4,2.4,0,0,1-.2-.8,2.1,2.1,0,0,1,.4-1.2c.1-.2.2-.3.4-.2a1.4,1.4,0,0,1,.7,1.3A11.3,11.3,0,0,0,29.1,19.2Z" fill="#02415e"/><path d="M29.1,12.4,27.8,12a.8.8,0,0,1-.7-.7,3.5,3.5,0,0,1-.3-1.1.3.3,0,0,1,.3-.3,1.3,1.3,0,0,1,1.3.7A6.7,6.7,0,0,0,29.1,12.4Z" fill="#02415e"/><path d="M12.9,29.4l1.7-.2a1.2,1.2,0,0,1,1.4.9c.1.1.1.2-.1.2a2.4,2.4,0,0,1-1.5.4,1.8,1.8,0,0,1-.9-.6Z" fill="#02415e"/><path d="M19.7,28.6a3.2,3.2,0,0,0,.3-.9,1.4,1.4,0,0,1,1.2-1.1h.6c.4-.1.4,0,.5.4a1,1,0,0,1-.8,1.1A12.7,12.7,0,0,1,19.7,28.6Z" fill="#02415e"/><path d="M6.5,25.9a14.2,14.2,0,0,0,1.8.8A1.1,1.1,0,0,1,9,28c-.1.2-.2.3-.4.2H8.1a1.6,1.6,0,0,1-1.4-1.4A3.1,3.1,0,0,0,6.5,25.9Z" fill="#02415e"/><path d="M25.6,25.2c0-.5-.3-1-.3-1.5s.1-.3.2-.5a3.2,3.2,0,0,1,1-1c.1-.1.2-.1.4.1a1.1,1.1,0,0,1,0,1.5l-.6.7A4.6,4.6,0,0,0,25.6,25.2Z" fill="#02415e"/><path d="M9.5,4.5A7.5,7.5,0,0,1,9.5,6,2,2,0,0,1,8.3,7c-.6.3-.7.2-.8-.4s.2-.8.6-1.1A12.1,12.1,0,0,0,9.5,4.5Z" fill="#02415e"/><path d="M12.3,2.5c0,.1,0,.1-.1.1l-1.3,1a1.2,1.2,0,0,1-1.6,0c-.1-.2-.1-.3,0-.4l.5-.6a1.5,1.5,0,0,1,1.8-.3Z" fill="#02415e"/><path d="M12.7,3.2a2.9,2.9,0,0,0-.2.9,1.5,1.5,0,0,1-1.2,1.1h-.6c-.4.1-.5,0-.5-.4A1.1,1.1,0,0,1,11,3.8Z" fill="#02415e"/><path d="M9.5,28.1l2,.3a1.2,1.2,0,0,1,.9,1.2l-.2.2a2.6,2.6,0,0,1-1.5-.1A1.2,1.2,0,0,1,10,29Z" fill="#02415e"/><path d="M13.7,2.8a1.3,1.3,0,0,1-1-.7c0-.1,0-.2.1-.2a2.4,2.4,0,0,1,1.3-.7,1.4,1.4,0,0,1,.9.1c.3.2.5.5.8.6s.1.1,0,.1l-1.9.8Z" fill="#02415e"/><path d="M4,9.1a16.2,16.2,0,0,0-.3,2,1,1,0,0,1-1.1.9c-.2.1-.3,0-.3-.1a4,4,0,0,1,0-1.1,1.3,1.3,0,0,1,1-1.2Z" fill="#02415e"/><path d="M30.2,15.6c-.2-.6-.5-1.2-.7-1.7a1.1,1.1,0,0,1,.5-1.4c.1-.1.2-.2.3,0a2.8,2.8,0,0,1,.6.9,1.2,1.2,0,0,1-.1,1.3Z" fill="#02415e"/><path d="M23,3.7c-.7-.2-1.4-.1-2-.3a1,1,0,0,1-.9-1.2c0-.1.1-.1.2-.2s1.9,0,2.4,1.1S22.9,3.5,23,3.7Z" fill="#02415e"/><path d="M12.9,28.6l.8-.7a1.3,1.3,0,0,1,1.3-.3l.9.3c.1.1.2.2.1.3a1.2,1.2,0,0,1-1.4.8,10.1,10.1,0,0,0-1.7-.3Z" fill="#02415e"/><path d="M6.1,6.3c-.3.6-.4,1.2-.7,1.8a1.2,1.2,0,0,1-1.3.6l-.3-.3a4.4,4.4,0,0,1,.5-1.5L5,6.5Z" fill="#02415e"/><path d="M2.7,12.6a14.9,14.9,0,0,0,.2,2.1,1.1,1.1,0,0,1-.9,1H1.7a4,4,0,0,1-.3-1.5.9.9,0,0,1,.5-.8A2.7,2.7,0,0,1,2.7,12.6Z" fill="#02415e"/><path d="M23.5,4.2c0-.6.1-.7.6-.6h.5A1.5,1.5,0,0,1,25.7,5a6.4,6.4,0,0,1,.2.7c0,.1-.1.2-.2.1l-1.6-.7A1.1,1.1,0,0,1,23.5,4.2Z" fill="#02415e"/><path d="M2.8,19.8l1.1,1.5a1,1,0,0,1-.1,1.5H3.5a2.7,2.7,0,0,1-.8-.7,1.6,1.6,0,0,1-.2-1.5Z" fill="#02415e"/><path d="M30.2,20.7c.1.8-.3,1.3-1.2,1.6l-.3.2h-.2v-.2a8.8,8.8,0,0,0,.2-1.7,1.2,1.2,0,0,1,1.1-.9c.2-.1.3,0,.4.2Z" fill="#02415e"/><path d="M4.7,9.4a4.1,4.1,0,0,1,.5.9,1.2,1.2,0,0,1,.1,1.3l-.6.9H4.3a1.3,1.3,0,0,1-.5-1.3C4,10.6,4.5,10,4.7,9.4Z" fill="#02415e"/><path d="M22.9,4.4l-1,.6a1.7,1.7,0,0,1-1.4,0l-.7-.5c-.3-.3-.3-.3,0-.6a1.1,1.1,0,0,1,1.3-.3A9.8,9.8,0,0,0,22.9,4.4Z" fill="#02415e"/><path d="M16.5,29.8a4.6,4.6,0,0,0,1.6-.7,1.3,1.3,0,0,1,1.6.5.2.2,0,0,1,0,.3,3.3,3.3,0,0,1-1.3.7,1,1,0,0,1-.9-.2Z" fill="#02415e"/><path d="M3,16l1,.6a1.3,1.3,0,0,1,.6,1.2c0,.3-.1.6-.1.9s-.1.2-.3.2A1.3,1.3,0,0,1,3.1,18c-.1-.5,0-1.1-.1-1.6S2.9,16.2,3,16Z" fill="#02415e"/><path d="M6.8,6.6a7.9,7.9,0,0,1,.3,1.3,1.8,1.8,0,0,1-.9,1.6c-.4.3-.5.3-.7-.2a.8.8,0,0,1,.1-1.2Z" fill="#02415e"/><path d="M23.5,27.8l1.1-1.5a1.4,1.4,0,0,1,1.5-.3c.2.1.2.2.1.3a2.7,2.7,0,0,1-.6,1.2,1.8,1.8,0,0,1-1,.4Z" fill="#02415e"/><path d="M29.8,19.2a15,15,0,0,1-.2-2.2,1.1,1.1,0,0,1,.9-.9h.2a2.9,2.9,0,0,1,.3,1.6.9.9,0,0,1-.3.6l-.8.8Z" fill="#02415e"/><path d="M2.3,16.2a15.9,15.9,0,0,1,.7,2c.2.4-.2,1-.6,1.2H2.1a1.8,1.8,0,0,1-.2-2.6Z" fill="#02415e"/><path d="M19.5,2.4l-2,.2a1.1,1.1,0,0,1-1.1-.9c0-.2.1-.2.2-.3A7,7,0,0,1,18,1.1l.7.4A7.3,7.3,0,0,1,19.5,2.4Z" fill="#02415e"/><path d="M22.9,27.3a4.8,4.8,0,0,0,0-1.2,1.5,1.5,0,0,1,.8-1.1l.8-.4c.2,0,.3,0,.3.2a1,1,0,0,1-.4,1.5Z" fill="#02415e"/><path d="M29.5,15.8l-1-.5a1.4,1.4,0,0,1-.6-1.2v-.9a.5.5,0,0,1,.5-.3,1.1,1.1,0,0,1,.9.8C29.5,14.4,29.3,15.1,29.5,15.8Z" fill="#02415e"/><path d="M20.1,29.3l1.5-1.1a1.1,1.1,0,0,1,1.6.1c.1.1.1.1,0,.3a3,3,0,0,1-.8.8,1.3,1.3,0,0,1-1.2.2A4.5,4.5,0,0,0,20.1,29.3Z" fill="#02415e"/><path d="M27.8,22.4l-.6-.9a1.5,1.5,0,0,1,0-1.3,2.4,2.4,0,0,1,.6-.9c.1-.1.2-.1.4,0a1.2,1.2,0,0,1,.4,1.4C28.4,21.3,27.9,21.8,27.8,22.4Z" fill="#02415e"/><path d="M4.3,23a20,20,0,0,0,1.6,1.4c.5.4.3.9.1,1.4H5.7a2.5,2.5,0,0,1-1.2-.8,3.3,3.3,0,0,1-.3-.6C4.2,24.1,4.3,23.6,4.3,23Z" fill="#02415e"/><path d="M8.3,25a1.7,1.7,0,0,1,1.3.7l.2.2c.3.4.3.5-.2.7a.8.8,0,0,1-1.2-.1L7,25.4a.1.1,0,0,1,0-.2Z" fill="#02415e"/><path d="M7,5.9H6.9c-.7,0-.8-.2-.5-.8a2.2,2.2,0,0,1,.5-.8,1.3,1.3,0,0,1,1-.4h.9c.1,0,.1.1,0,.2a11.3,11.3,0,0,1-1,1.3A.9.9,0,0,1,7,5.9Z" fill="#02415e"/><path d="M26.3,25.6c.4-.7.5-1.4.9-2a1.1,1.1,0,0,1,1.2-.5c.2.1.2.2.2.3a1.8,1.8,0,0,1-1.7,2Z" fill="#02415e"/><path d="M16.2,2.7c-.3.3-.4.7-.7,1a1.1,1.1,0,0,1-1.1.6h-.9a.3.3,0,0,1-.3-.3,1.3,1.3,0,0,1,1.2-1.1h1.8Z" fill="#02415e"/><path d="M16.2,29.1l.6-.8a1.5,1.5,0,0,1,1.5-.8h.6c.3,0,.4.1.3.4s-.5,1-1.2,1Z" fill="#02415e"/><path d="M28.2,7.9c0,.2.1.6-.1.7s-.3-.3-.5-.4l-1.1-.8a1.2,1.2,0,0,1,0-1.4h.2a3,3,0,0,1,1.3.9C28.3,7.1,28.2,7.5,28.2,7.9Z" fill="#02415e"/><path d="M4.6,14.3a6.5,6.5,0,0,1-.4,1.3c-.1.1-.2.2-.4.1a1,1,0,0,1-.7-1.2c0-.6.2-1.1.2-1.7s.1-.3.2-.1.7.5.9.9A1.4,1.4,0,0,1,4.6,14.3Z" fill="#02415e"/><path d="M29.6,12c-.3-.6-.8-1-1.1-1.6A.9.9,0,0,1,28.7,9h.2A2.4,2.4,0,0,1,30,10.4a1.1,1.1,0,0,1-.1.8Z" fill="#02415e"/><path d="M4.7,22.6H5.8c.5,0,.9.1,1.1.5a5.3,5.3,0,0,1,.6,1c0,.2,0,.3-.2.4A1.2,1.2,0,0,1,6,24.3C5.5,23.8,5.3,23.1,4.7,22.6Z" fill="#02415e"/><path d="M18.1,15.8h.2a1.5,1.5,0,0,1,1.6-.3,1,1,0,0,0,.9-.2,3.4,3.4,0,0,1,1.4-.5,1.1,1.1,0,0,0,.9-.4l1.2-.8A2.9,2.9,0,0,1,23,15.3a2.3,2.3,0,0,1-1.4.4.8.8,0,0,0-.7.4l-.2.2c-.4.1-.4.3-.4.7s-.2.5-.4.8l-.8,1.4-.3.7c0,.1-.1.2,0,.3h.3a5.3,5.3,0,0,0,1.4-1.2l.3-.5H21a.1.1,0,0,1-.1.1,5.5,5.5,0,0,1-1.3,1.7,1.2,1.2,0,0,1-1,.3.9.9,0,0,1-.5-.9,3.2,3.2,0,0,1,.3-1.4c.3-.5.5-1,.8-1.6a.1.1,0,0,0,0-.2.5.5,0,0,0-.4.2l-.3.4a1.2,1.2,0,0,0-.5,1.2v2.1a.4.4,0,0,1-.2.4c-.2.1-.3,0-.5-.1a4.1,4.1,0,0,1-.7-1.1,5.8,5.8,0,0,1-.4-1.9c0-.3-.1-.5-.4-.5h-.2c-.6-.2-.6-.2-.8.5A12.8,12.8,0,0,1,13.7,20a1.8,1.8,0,0,1-2.8.3,3.9,3.9,0,0,1-1.1-1.5,9.4,9.4,0,0,1-.6-1.5,3,3,0,0,1,.3-2.6,1,1,0,0,1,1.2-.5,28.5,28.5,0,0,1,3.1,1.2l.2.2c.2.1.3,0,.4-.2a26,26,0,0,1,1-2.5,11.4,11.4,0,0,1,1-1.9,3.1,3.1,0,0,1,1.3-1c.5-.2.7,0,.6.4a44.1,44.1,0,0,0-.3,5.2Zm-7.2.3a4.5,4.5,0,0,0,.7,2.5c.4.7,1,.7,1.4,0a8.2,8.2,0,0,0,.9-1.9c.1-.2,0-.3-.2-.4l-2-.9c-.5-.3-.8-.1-.8.5Zm5.7-3.8a17.5,17.5,0,0,0-1.2,3.2c-.2.6-.2.7.4.9s.3,0,.4-.2A17.2,17.2,0,0,1,16.6,12.3Z" fill="#02415e"/><path d="M19.6,15q-.3-.1-.3-.3c-.1-.2,0-.3.1-.4h.7c.2.1.1.3,0,.4A.8.8,0,0,1,19.6,15Z" fill="#02415e"/></svg>